<?xml version="1.0" encoding="UTF-8" standalone="no"?>
<!DOCTYPE svg PUBLIC "-//W3C//DTD SVG 1.1//EN"
 "http://www.w3.org/Graphics/SVG/1.1/DTD/svg11.dtd">
<!-- Generated by graphviz version 2.43.0 (0)
 -->
<!-- Title: ashfall Pages: 1 -->
<svg width="464pt" height="405pt"
 viewBox="0.00 0.00 464.30 404.80" xmlns="http://www.w3.org/2000/svg" xmlns:xlink="http://www.w3.org/1999/xlink">
<g id="graph0" class="graph" transform="scale(1 1) rotate(0) translate(14.4 390.4)">
<title>ashfall</title>
<polygon fill="white" stroke="transparent" points="-14.4,14.4 -14.4,-390.4 449.9,-390.4 449.9,14.4 -14.4,14.4"/>
<!-- s1 -->
<g id="node1" class="node">
<title>s1</title>
<path fill="#f4f1ea" stroke="#5a5347" d="M345,-376C345,-376 12,-376 12,-376 6,-376 0,-370 0,-364 0,-364 0,-350 0,-350 0,-344 6,-338 12,-338 12,-338 345,-338 345,-338 351,-338 357,-344 357,-350 357,-350 357,-364 357,-364 357,-370 351,-376 345,-376"/>
<text text-anchor="start" x="101" y="-365" font-family="Helvetica,sans-Serif" font-weight="bold" font-size="10.00">1. Failure&#45;Boundary Replay</text>
<text text-anchor="start" x="8" y="-355" font-family="Helvetica,sans-Serif" font-size="10.00">Does a curriculum at a real failure beat broad domain randomization?</text>
<text text-anchor="start" x="47" y="-345" font-family="Helvetica,sans-Serif" font-weight="bold" font-size="10.00" fill="#9a3412">NO&#45;GO</text>
<text text-anchor="start" x="86" y="-345" font-family="Helvetica,sans-Serif" font-size="10.00">: an ordinary entry state beat the failure state</text>
</g>
<!-- s2 -->
<g id="node2" class="node">
<title>s2</title>
<path fill="#f4f1ea" stroke="#5a5347" d="M338.5,-308C338.5,-308 18.5,-308 18.5,-308 12.5,-308 6.5,-302 6.5,-296 6.5,-296 6.5,-282 6.5,-282 6.5,-276 12.5,-270 18.5,-270 18.5,-270 338.5,-270 338.5,-270 344.5,-270 350.5,-276 350.5,-282 350.5,-282 350.5,-296 350.5,-296 350.5,-302 344.5,-308 338.5,-308"/>
<text text-anchor="start" x="123" y="-297" font-family="Helvetica,sans-Serif" font-weight="bold" font-size="10.00">2. Precursor replay</text>
<text text-anchor="start" x="14.5" y="-287" font-family="Helvetica,sans-Serif" font-size="10.00">Does replay from before the failure make the real failure valuable?</text>
<text text-anchor="start" x="14.5" y="-277" font-family="Helvetica,sans-Serif" font-weight="bold" font-size="10.00" fill="#9a3412">NO&#45;GO</text>
<text text-anchor="start" x="53.5" y="-277" font-family="Helvetica,sans-Serif" font-size="10.00">: timing mattered; simulator and success states matched it</text>
</g>
<!-- s1&#45;&gt;s2 -->
<g id="edge1" class="edge">
<title>s1&#45;&gt;s2</title>
<path fill="none" stroke="#5a5347" d="M178.5,-337.97C178.5,-331.85 178.5,-324.87 178.5,-318.17"/>
<polygon fill="#5a5347" stroke="#5a5347" points="182,-318.01 178.5,-308.01 175,-318.01 182,-318.01"/>
<text text-anchor="middle" x="265" y="-320.8" font-family="Helvetica,sans-Serif" font-size="9.00"> &#160;provenance fails; is timing the issue?</text>
</g>
<!-- s3 -->
<g id="node3" class="node">
<title>s3</title>
<path fill="#f4f1ea" stroke="#5a5347" d="M332,-240C332,-240 25,-240 25,-240 19,-240 13,-234 13,-228 13,-228 13,-214 13,-214 13,-208 19,-202 25,-202 25,-202 332,-202 332,-202 338,-202 344,-208 344,-214 344,-214 344,-228 344,-228 344,-234 338,-240 332,-240"/>
<text text-anchor="start" x="130" y="-229" font-family="Helvetica,sans-Serif" font-weight="bold" font-size="10.00">3. Recoverability</text>
<text text-anchor="start" x="38.5" y="-219" font-family="Helvetica,sans-Serif" font-size="10.00">Is recoverability the hidden variable behind repair value?</text>
<text text-anchor="start" x="38.5" y="-209" font-family="Helvetica,sans-Serif" font-weight="bold" font-size="10.00" fill="#9a3412">NO&#45;GO</text>
<text text-anchor="start" x="77.5" y="-209" font-family="Helvetica,sans-Serif" font-size="10.00">: time before failure predicted repair value better</text>
</g>
<!-- s2&#45;&gt;s3 -->
<g id="edge2" class="edge">
<title>s2&#45;&gt;s3</title>
<path fill="none" stroke="#5a5347" d="M178.5,-269.97C178.5,-263.85 178.5,-256.87 178.5,-250.17"/>
<polygon fill="#5a5347" stroke="#5a5347" points="182,-250.01 178.5,-240.01 175,-250.01 182,-250.01"/>
<text text-anchor="middle" x="279.5" y="-252.8" font-family="Helvetica,sans-Serif" font-size="9.00"> &#160;timing matters; is recoverability the cause?</text>
</g>
<!-- s4 -->
<g id="node4" class="node">
<title>s4</title>
<path fill="#f4f1ea" stroke="#5a5347" d="M332,-172C332,-172 25,-172 25,-172 19,-172 13,-166 13,-160 13,-160 13,-146 13,-146 13,-140 19,-134 25,-134 25,-134 332,-134 332,-134 338,-134 344,-140 344,-146 344,-146 344,-160 344,-160 344,-166 338,-172 332,-172"/>
<text text-anchor="start" x="68" y="-161" font-family="Helvetica,sans-Serif" font-weight="bold" font-size="10.00">4. Failure&#45;critical system identification</text>
<text text-anchor="start" x="22" y="-151" font-family="Helvetica,sans-Serif" font-size="10.00">Does conditioning on the failure event find the missing physics?</text>
<text text-anchor="start" x="53.5" y="-141" font-family="Helvetica,sans-Serif" font-weight="bold" font-size="10.00" fill="#9a3412">NO&#45;GO</text>
<text text-anchor="start" x="92.5" y="-141" font-family="Helvetica,sans-Serif" font-size="10.00">: multiple shooting named 14/18, FCSI 7/18</text>
</g>
<!-- s3&#45;&gt;s4 -->
<g id="edge3" class="edge">
<title>s3&#45;&gt;s4</title>
<path fill="none" stroke="#5a5347" d="M178.5,-201.97C178.5,-195.85 178.5,-188.87 178.5,-182.17"/>
<polygon fill="#5a5347" stroke="#5a5347" points="182,-182.01 178.5,-172.01 175,-182.01 182,-182.01"/>
<text text-anchor="middle" x="307" y="-184.8" font-family="Helvetica,sans-Serif" font-size="9.00"> &#160;replay line closed; can a failure diagnose the simulator?</text>
</g>
<!-- s5 -->
<g id="node5" class="node">
<title>s5</title>
<path fill="#f4f1ea" stroke="#5a5347" d="M332,-104C332,-104 25,-104 25,-104 19,-104 13,-98 13,-92 13,-92 13,-78 13,-78 13,-72 19,-66 25,-66 25,-66 332,-66 332,-66 338,-66 344,-72 344,-78 344,-78 344,-92 344,-92 344,-98 338,-104 332,-104"/>
<text text-anchor="start" x="95.5" y="-93" font-family="Helvetica,sans-Serif" font-weight="bold" font-size="10.00">5. Active simulator diagnosis</text>
<text text-anchor="start" x="23.5" y="-83" font-family="Helvetica,sans-Serif" font-size="10.00">Does a chosen safe probe detect unknown mechanisms better?</text>
<text text-anchor="start" x="25" y="-73" font-family="Helvetica,sans-Serif" font-weight="bold" font-size="10.00" fill="#9a3412">NO&#45;GO</text>
<text text-anchor="start" x="64" y="-73" font-family="Helvetica,sans-Serif" font-size="10.00">: a fixed probe matched it; certified probes caused falls</text>
</g>
<!-- s4&#45;&gt;s5 -->
<g id="edge4" class="edge">
<title>s4&#45;&gt;s5</title>
<path fill="none" stroke="#5a5347" d="M178.5,-133.97C178.5,-127.85 178.5,-120.87 178.5,-114.17"/>
<polygon fill="#5a5347" stroke="#5a5347" points="182,-114.01 178.5,-104.01 175,-114.01 182,-114.01"/>
<text text-anchor="middle" x="306.5" y="-116.8" font-family="Helvetica,sans-Serif" font-size="9.00"> &#160;closed&#45;set works, open&#45;set does not; can probing help?</text>
</g>
<!-- arch -->
<g id="node6" class="node">
<title>arch</title>
<path fill="#e7e5e4" stroke="#5a5347" d="M296,-36C296,-36 61,-36 61,-36 55,-36 49,-30 49,-24 49,-24 49,-12 49,-12 49,-6 55,0 61,0 61,0 296,0 296,0 302,0 308,-6 308,-12 308,-12 308,-24 308,-24 308,-30 302,-36 296,-36"/>
<text text-anchor="start" x="149.5" y="-21" font-family="Helvetica,sans-Serif" font-weight="bold" font-size="10.00">ARCHIVED</text>
<text text-anchor="start" x="60" y="-11" font-family="Helvetica,sans-Serif" font-size="10.00">no Isaac Lab or GO2 study run for any of the five</text>
</g>
<!-- s5&#45;&gt;arch -->
<g id="edge5" class="edge">
<title>s5&#45;&gt;arch</title>
<path fill="none" stroke="#5a5347" d="M178.5,-65.89C178.5,-59.78 178.5,-52.82 178.5,-46.16"/>
<polygon fill="#5a5347" stroke="#5a5347" points="182,-46.12 178.5,-36.12 175,-46.12 182,-46.12"/>
<text text-anchor="middle" x="230.5" y="-48.8" font-family="Helvetica,sans-Serif" font-size="9.00"> &#160;no further hypothesis</text>
</g>
</g>
</svg>
